<svg viewBox="0 0 100 100" xmlns="http://www.w3.org/2000/svg">
  <ellipse cx="34" cy="38" rx="14" ry="20" fill="#0056b2" transform="rotate(-10 34 38)" />
  <ellipse cx="34" cy="38" rx="7" ry="12" fill="white" transform="rotate(-10 34 38)" />
  <ellipse cx="66" cy="38" rx="14" ry="20" fill="#0056b2" transform="rotate(10 66 38)" />
  <ellipse cx="66" cy="38" rx="7" ry="12" fill="white" transform="rotate(10 66 38)" />
  <path d="M20 78 Q20 58 34 58 Q38 58 38 65 L38 78" stroke="#0056b2" stroke-width="6" stroke-linecap="round" stroke-linejoin="round" fill="none" />
  <path d="M80 78 Q80 58 66 58 Q62 58 62 65 L62 78" stroke="#0056b2" stroke-width="6" stroke-linecap="round" stroke-linejoin="round" fill="none" />
  <path d="M20 78 Q34 88 50 88 Q66 88 80 78" stroke="#0056b2" stroke-width="6" stroke-linecap="round" fill="none" />
  <line x1="50" y1="55" x2="50" y2="62" stroke="#0056b2" stroke-width="5" stroke-linecap="round" />
</svg>
